<svg xmlns="http://www.w3.org/2000/svg" width="412.635" height="113.386" viewBox="0 0 412.635 113.386">
  <g id="Group_113" data-name="Group 113" transform="translate(-214.627 -1471.496)">
    <g id="Group_110" data-name="Group 110">
      <path id="Path_404" data-name="Path 404" d="M325.522,1552.715v-59.568h18.29q13.254,0,22.233,8.557a29.584,29.584,0,0,1,0,42.453q-8.979,8.558-22.233,8.558Zm9.816-9.145h8.474q9.395,0,15.311-5.873a21.392,21.392,0,0,0,0-29.533q-5.914-5.871-15.311-5.873h-8.474Z"/>
      <path id="Path_405" data-name="Path 405" d="M402.087,1553.554a20.675,20.675,0,0,1-15.438-6.168q-6.04-6.165-6.04-15.646t5.956-15.648q5.957-6.165,15.606-6.166,9.73,0,15.688,6.754t5.286,17.325H389.753a11.208,11.208,0,0,0,3.692,8.138,12.669,12.669,0,0,0,8.977,3.272q7.717,0,10.571-5.872h9.648a19.377,19.377,0,0,1-7.382,10.067A21.866,21.866,0,0,1,402.087,1553.554Zm-.169-35.908a12.111,12.111,0,0,0-7.76,2.558,11.768,11.768,0,0,0-4.153,7.257h23.24a12.137,12.137,0,0,0-4.111-7.341A11.247,11.247,0,0,0,401.918,1517.646Z"/>
      <path id="Path_406" data-name="Path 406" d="M448.9,1553.135a14.946,14.946,0,0,1-10.361-3.566q-3.987-3.565-3.986-10.362v-20.219h-8.725v-8.222h8.725V1499.1h9.229v11.662h12v8.222h-12V1537.7q0,3.861,1.678,5.495t5.37,1.636a12.538,12.538,0,0,0,4.95-.838v8.222A23.593,23.593,0,0,1,448.9,1553.135Z"/>
      <path id="Path_407" data-name="Path 407" d="M480.725,1553.554a20.675,20.675,0,0,1-15.438-6.168q-6.04-6.165-6.04-15.646t5.956-15.648q5.957-6.165,15.605-6.166,9.732,0,15.689,6.754t5.286,17.325H468.391a11.208,11.208,0,0,0,3.692,8.138,12.669,12.669,0,0,0,8.977,3.272q7.717,0,10.571-5.872h9.648a19.377,19.377,0,0,1-7.382,10.067A21.866,21.866,0,0,1,480.725,1553.554Zm-.169-35.908a12.111,12.111,0,0,0-7.76,2.558,11.768,11.768,0,0,0-4.153,7.257h23.24a12.137,12.137,0,0,0-4.111-7.341A11.247,11.247,0,0,0,480.556,1517.646Z"/>
      <path id="Path_408" data-name="Path 408" d="M549.763,1570.249h-9.229v-23.156a15.476,15.476,0,0,1-5.537,4.573,16.76,16.76,0,0,1-7.886,1.888,18.729,18.729,0,0,1-14.39-6.377,23.352,23.352,0,0,1,0-30.874,18.729,18.729,0,0,1,14.39-6.377,16.738,16.738,0,0,1,7.886,1.889,15.483,15.483,0,0,1,5.537,4.571v-5.62h9.229Zm-29.952-28.944a12.37,12.37,0,0,0,17.955,0,14.745,14.745,0,0,0,0-19.129,12.37,12.37,0,0,0-17.955,0,14.745,14.745,0,0,0,0,19.129Z"/>
      <path id="Path_409" data-name="Path 409" d="M578.448,1553.135a14.946,14.946,0,0,1-10.361-3.566Q564.1,1546,564.1,1539.207v-20.219h-8.725v-8.222H564.1V1499.1h9.229v11.662h12v8.222h-12V1537.7q0,3.861,1.678,5.495t5.37,1.636a12.529,12.529,0,0,0,4.949-.838v8.222A23.581,23.581,0,0,1,578.448,1553.135Z"/>
    </g>
    <g id="Group_111" data-name="Group 111">
      <path id="Path_410" data-name="Path 410" d="M592.009,1518.951l11.267-25.8h3.708l11.266,25.8h-4.434l-2.944-6.761H599.314l-2.907,6.761Zm13.084-20.063-4.143,9.523h8.287Z"/>
      <path id="Path_411" data-name="Path 411" d="M623.011,1518.951v-25.8h4.251v25.8Z"/>
    </g>
    <g id="Group_112" data-name="Group 112">
      <path id="Path_412" data-name="Path 412" d="M244.648,1485.815s7.475,12.735,7.475,42.374-7.475,42.393-7.475,42.393a56.992,56.992,0,0,1-30.021,14.3V1471.5A56.878,56.878,0,0,1,244.648,1485.815Z" fill="#043091"/>
      <path id="Path_413" data-name="Path 413" d="M268.861,1528.189c0,19.407-10.114,35.677-24.213,42.393v-84.767C259.207,1492.513,268.861,1508.781,268.861,1528.189Z" fill="#1b52fa"/>
      <path id="Path_414" data-name="Path 414" d="M273.765,1492.513s5.888,14.558,5.888,35.676-5.888,35.677-5.888,35.677a57.226,57.226,0,0,1-29.117,19.411v-12.695a57.245,57.245,0,0,0,0-84.767V1473.1A57.224,57.224,0,0,1,273.765,1492.513Z" fill="#0094ff"/>
      <path id="Path_415" data-name="Path 415" d="M290.065,1528.2c0,13.488-7.134,28.329-16.3,35.668v-71.353C283.586,1500.146,290.065,1514.692,290.065,1528.2Z" fill="#00ea87"/>
      <path id="Path_416" data-name="Path 416" d="M302.421,1528.2a57.214,57.214,0,0,1-28.656,49.58v-13.912a57.127,57.127,0,0,0,0-71.353V1478.6A57.22,57.22,0,0,1,302.421,1528.2Z" fill="#86ff15"/>
    </g>
  </g>
</svg>
