<svg xmlns="http://www.w3.org/2000/svg" width="412.635" height="113.386" viewBox="0 0 412.635 113.386">
  <g id="Group_108" data-name="Group 108" transform="translate(-214.627 -2087.5)">
    <g id="Group_105" data-name="Group 105">
      <path id="Path_391" data-name="Path 391" d="M325.522,2168.719V2109.15h18.29q13.254,0,22.233,8.558a29.584,29.584,0,0,1,0,42.453q-8.979,8.558-22.233,8.558Zm9.816-9.145h8.474q9.395,0,15.311-5.873a21.392,21.392,0,0,0,0-29.533q-5.914-5.871-15.311-5.873h-8.474Z" fill="#fff"/>
      <path id="Path_392" data-name="Path 392" d="M402.087,2169.558a20.676,20.676,0,0,1-15.438-6.168q-6.04-6.165-6.04-15.646t5.956-15.648q5.957-6.165,15.606-6.166,9.73,0,15.688,6.754t5.286,17.325H389.753a11.212,11.212,0,0,0,3.692,8.138,12.669,12.669,0,0,0,8.977,3.272q7.717,0,10.571-5.873h9.648a19.376,19.376,0,0,1-7.382,10.068A21.865,21.865,0,0,1,402.087,2169.558Zm-.169-35.909a12.111,12.111,0,0,0-7.76,2.559,11.768,11.768,0,0,0-4.153,7.257h23.24a12.142,12.142,0,0,0-4.111-7.342A11.253,11.253,0,0,0,401.918,2133.649Z" fill="#fff"/>
      <path id="Path_393" data-name="Path 393" d="M448.9,2169.138a14.941,14.941,0,0,1-10.361-3.566q-3.987-3.564-3.986-10.361v-20.219h-8.725v-8.222h8.725v-11.662h9.229v11.662h12v8.222h-12V2153.7q0,3.859,1.678,5.494t5.37,1.636a12.537,12.537,0,0,0,4.95-.837v8.222A23.6,23.6,0,0,1,448.9,2169.138Z" fill="#fff"/>
      <path id="Path_394" data-name="Path 394" d="M480.725,2169.558a20.676,20.676,0,0,1-15.438-6.168q-6.04-6.165-6.04-15.646T465.2,2132.1q5.957-6.165,15.605-6.166,9.732,0,15.689,6.754t5.286,17.325H468.391a11.212,11.212,0,0,0,3.692,8.138,12.669,12.669,0,0,0,8.977,3.272q7.717,0,10.571-5.873h9.648a19.376,19.376,0,0,1-7.382,10.068A21.865,21.865,0,0,1,480.725,2169.558Zm-.169-35.909a12.111,12.111,0,0,0-7.76,2.559,11.768,11.768,0,0,0-4.153,7.257h23.24a12.142,12.142,0,0,0-4.111-7.342A11.253,11.253,0,0,0,480.556,2133.649Z" fill="#fff"/>
      <path id="Path_395" data-name="Path 395" d="M549.763,2186.253h-9.229V2163.1A15.473,15.473,0,0,1,535,2167.67a16.759,16.759,0,0,1-7.886,1.888,18.73,18.73,0,0,1-14.39-6.377,23.352,23.352,0,0,1,0-30.874,18.729,18.729,0,0,1,14.39-6.377,16.747,16.747,0,0,1,7.886,1.888,15.493,15.493,0,0,1,5.537,4.572v-5.62h9.229Zm-29.952-28.944a12.372,12.372,0,0,0,17.955,0,14.746,14.746,0,0,0,0-19.13,12.372,12.372,0,0,0-17.955,0,14.746,14.746,0,0,0,0,19.13Z" fill="#fff"/>
      <path id="Path_396" data-name="Path 396" d="M578.448,2169.138a14.942,14.942,0,0,1-10.361-3.566q-3.987-3.564-3.986-10.361v-20.219h-8.725v-8.222H564.1v-11.662h9.229v11.662h12v8.222h-12V2153.7q0,3.859,1.678,5.494t5.37,1.636a12.528,12.528,0,0,0,4.949-.837v8.222A23.583,23.583,0,0,1,578.448,2169.138Z" fill="#fff"/>
    </g>
    <g id="Group_106" data-name="Group 106">
      <path id="Path_397" data-name="Path 397" d="M592.009,2134.955l11.267-25.805h3.708l11.266,25.805h-4.434l-2.944-6.761H599.314l-2.907,6.761Zm13.084-20.063-4.143,9.523h8.287Z" fill="#fff"/>
      <path id="Path_398" data-name="Path 398" d="M623.011,2134.955V2109.15h4.251v25.805Z" fill="#fff"/>
    </g>
    <g id="Group_107" data-name="Group 107">
      <path id="Path_399" data-name="Path 399" d="M244.648,2101.818s7.475,12.736,7.475,42.375-7.475,42.393-7.475,42.393a56.993,56.993,0,0,1-30.021,14.3V2087.5A56.883,56.883,0,0,1,244.648,2101.818Z" fill="#043091"/>
      <path id="Path_400" data-name="Path 400" d="M268.861,2144.193c0,19.407-10.114,35.676-24.213,42.393v-84.768C259.207,2108.516,268.861,2124.785,268.861,2144.193Z" fill="#1b52fa"/>
      <path id="Path_401" data-name="Path 401" d="M273.765,2108.516s5.888,14.559,5.888,35.677-5.888,35.676-5.888,35.676a57.222,57.222,0,0,1-29.117,19.412v-12.7a57.246,57.246,0,0,0,0-84.768V2089.1A57.227,57.227,0,0,1,273.765,2108.516Z" fill="#0094ff"/>
      <path id="Path_402" data-name="Path 402" d="M290.065,2144.2c0,13.488-7.134,28.328-16.3,35.667v-71.353C283.586,2116.15,290.065,2130.7,290.065,2144.2Z" fill="#00ea87"/>
      <path id="Path_403" data-name="Path 403" d="M302.421,2144.2a57.214,57.214,0,0,1-28.656,49.58v-13.913a57.127,57.127,0,0,0,0-71.353V2094.6A57.219,57.219,0,0,1,302.421,2144.2Z" fill="#86ff15"/>
    </g>
  </g>
</svg>